Coordinates
version=1
nRows=12
nColumns=24
inDegrees=yes

Units are S.I. units (second, meters, Newtons, ...)
Angles are in degrees.

endheader
time	pelvis_tilt	pelvis_list	pelvis_rotation	pelvis_tx	pelvis_ty	pelvis_tz	hip_flexion_r	hip_adduction_r	hip_rotation_r	knee_angle_r	ankle_angle_r	subtalar_angle_r	mtp_angle_r	hip_flexion_l	hip_adduction_l	hip_rotation_l	knee_angle_l	ankle_angle_l	subtalar_angle_l	mtp_angle_l	lumbar_extension	lumbar_bending	lumbar_rotation
      2.47000000	     15.05157323	     -2.70860345	      4.89788333	      0.96659803	      0.91589026	      0.28222518	     13.95333848	      4.29385574	     -3.59044320	    -31.51556197	     13.74272904	      0.28408879	     28.01995546	    -19.95555474	     -5.62249131	     -3.33698515	    -49.40267923	     11.22265761	      5.71986640	     57.91642231	    -29.27236504	      7.10344729	      1.44184761
      2.47500000	     14.47938512	     -3.37774669	      5.31544509	      0.97286317	      0.91503371	      0.28241920	     14.27627072	      5.08528499	     -3.77321823	    -31.59991557	     14.05707578	      0.28379353	     25.21680722	    -17.93284468	     -6.49553644	     -2.80168352	    -52.08283007	     10.97480125	      5.42558832	     53.86065001	    -28.61013121	      7.96108442	      1.44224762
      2.48000000	     13.81632460	     -4.02874337	      5.75257638	      0.97898991	      0.91406927	      0.28249576	     14.71019555	      5.84004316	     -3.93145893	    -31.64403268	     14.35895781	     -0.16268174	     24.29224212	    -15.77559298	     -7.26905706	     -2.10165910	    -54.74025820	     11.11375057	      4.81874593	     50.81258845	    -27.84801449	      8.80032830	      1.40295581
      2.48500000	     13.24172295	     -4.59660555	      6.12372092	      0.98501251	      0.91336362	      0.28260734	     15.05268287	      6.50352765	     -4.04953097	    -31.67993702	     14.72576856	     -0.83633164	     24.24283724	    -13.74182176	     -7.87307633	     -1.40199834	    -57.22888273	     11.62382735	      4.11653871	     50.36421673	    -27.19086434	      9.53734860	      1.34908688
      2.49000000	     12.73290076	     -5.08126973	      6.49269549	      0.99097465	      0.91295365	      0.28249523	     15.27166006	      7.04281515	     -4.18182095	    -31.63077682	     15.08001115	     -1.61459979	     24.37816939	    -11.80581864	     -8.30516036	     -0.63193058	    -59.51036337	     12.26686806	      3.55320028	     49.09008669	    -26.61857267	     10.20512320	      1.30457421
      2.49500000	     12.35948963	     -5.57519917	      6.90077257	      0.99695887	      0.91283445	      0.28223753	     15.30528669	      7.56508820	     -4.36267650	    -31.53828333	     15.36362633	     -2.10539951	     24.05500826	    -10.04071379	     -8.72239022	      0.16932716	    -61.61850877	     12.66830542	      3.04228557	     48.95423679	    -26.17383625	     10.91587229	      1.23673835
      2.50000000	     12.00821043	     -5.97321348	      7.20990708	      1.00305313	      0.91287916	      0.28220936	     15.32056523	      8.00711912	     -4.49484226	    -31.50917649	     15.74161046	     -2.29834925	     22.16597897	     -8.35926098	     -9.03212245	      0.80848248	    -63.52262514	     12.92497632	      2.31485416	     47.54231203	    -25.75507429	     11.46887382	      1.18675370
      2.50500000	     11.77697086	     -6.28458668	      7.53066931	      1.00917147	      0.91329221	      0.28212591	     15.13665092	      8.35591974	     -4.69322246	    -31.38680806	     16.00222691	     -2.31719709	     21.81446315	     -6.84634235	     -9.26194859	      1.39982703	    -65.23087137	     13.01712303	      1.37054384	     47.53805616	    -25.45044961	     11.94039930	      1.08471394
      2.51000000	     11.59422430	     -6.59063048	      7.80818556	      1.01519772	      0.91383067	      0.28212801	     14.88563671	      8.72070643	     -4.85810443	    -31.20591597	     16.26957015	     -2.24588407	     21.20049219	     -5.37906741	     -9.49291000	      1.92706551	    -66.85035616	     13.16009399	      0.58547545	     47.23541350	    -25.22506587	     12.37724407	      1.04421574
      2.51500000	     11.45097533	     -6.92200183	      8.14330738	      1.02103607	      0.91446640	      0.28222609	     14.58705866	      9.11365268	     -5.09882512	    -30.96446093	     16.49177979	     -2.24154443	     20.79662940	     -3.88372603	     -9.80252473	      2.48791653	    -68.45855538	     13.34159479	      0.14469489	     47.33426028	    -25.04639774	     12.85275345	      0.92761277
      2.52000000	     11.18247412	     -7.24798515	      8.44930103	      1.02699563	      0.91497592	      0.28225436	     14.39187982	      9.47191010	     -5.32242386	    -30.67557298	     16.76848055	     -2.21550809	     20.46716462	     -2.25315747	    -10.07340916	      3.02362216	    -69.96871272	     13.52694537	     -0.12026778	     47.42072248	    -24.71109749	     13.30031377	      0.80859662
      2.52500000	     10.92360816	     -7.63577954	      8.63159977	      1.03307357	      0.91545133	      0.28256817	     14.16443312	      9.96095047	     -5.33473849	    -30.32673357	     17.03435735	     -2.40129023	     20.10987055	     -0.67923454	    -10.43311188	      3.36215756	    -71.35297486	     13.81189547	     -0.22983062	     47.50643541	    -24.39033378	     13.75357812	      0.73926048
